<?xml version="1.0" encoding="UTF-8"?>
<svg xmlns="http://www.w3.org/2000/svg" width="1200" height="675" viewBox="0 0 1200 675">
<defs><marker id="a" markerWidth="9" markerHeight="9" refX="8" refY="4.5" orient="auto"><path d="M0 0L9 4.5L0 9z" fill="#37536b"/></marker><linearGradient id="bg" x2="1" y2="1"><stop stop-color="#f5fbff"/><stop offset="1" stop-color="#e6f1f8"/></linearGradient></defs>
<style>text{font-family:Arial,sans-serif;fill:#173247;font-size:18px;font-weight:700}.title{font-size:30px}.sub{font-size:17px;font-weight:500;fill:#466276}.tag{font-size:15px;fill:#fff}.b{stroke:#fff;stroke-width:2}.host{fill:#334e68}.cdr{fill:#32b6d8}.driver{fill:#4284b5}.tia{fill:#76cbd0}.optic{fill:#67ca73}.mux{fill:#9abbd2}.fiber{fill:#eebf45}.arr{fill:none;stroke:#37536b;stroke-width:3;marker-end:url(#a)}.lane{font-size:15px;font-weight:600}.note{font-size:14px;font-weight:500;fill:#5f7180}</style>
<rect width="1200" height="675" rx="30" fill="url(#bg)"/><text class="title" x="600" y="55" text-anchor="middle">SFP+ 10G BiDi Working Principle</text>
<rect x="70" y="82" width="220" height="36" rx="18" fill="#173f5f"/><text class="tag" x="180" y="106" text-anchor="middle">HOST: 1 × 10G NRZ</text>
<rect x="305" y="82" width="350" height="36" rx="18" fill="#167d91"/><text class="tag" x="480" y="106" text-anchor="middle">OPTICAL: TX λA / RX λB</text>
<rect x="670" y="82" width="300" height="36" rx="18" fill="#9b6b18"/><text class="tag" x="820" y="106" text-anchor="middle">SMF • simplex LC</text>
<text x="70" y="175">TRANSMIT PATH →</text><rect class="host" x="85" y="215" width="130" height="48" rx="16"/><text x="150" y="245" text-anchor="middle">TX input</text><path class="arr" d="M215 239 H255"/><rect class="cdr" x="255" y="215" width="125" height="48" rx="16"/><text x="317.5" y="245" text-anchor="middle">CDR / EQ</text><path class="arr" d="M380 239 H420"/><rect class="driver" x="420" y="215" width="135" height="48" rx="16"/><text x="487.5" y="245" text-anchor="middle">Laser driver</text><path class="arr" d="M555 239 H595"/><rect class="optic" x="595" y="215" width="150" height="48" rx="16"/><text x="670" y="245" text-anchor="middle">Laser λA</text><path class="arr" d="M745 239 H805"/><rect class="mux" x="805" y="285" width="150" height="95" rx="16"/><text x="880" y="338.5" text-anchor="middle">WDM diplexer</text><path class="arr" d="M805 239 H780 V310 H805"/><text x="70" y="390">← RECEIVE PATH</text><rect class="host" x="85" y="425" width="130" height="48" rx="16"/><text x="150" y="455" text-anchor="middle">RX output</text><path class="arr" d="M255 449 H215"/><rect class="cdr" x="255" y="425" width="125" height="48" rx="16"/><text x="317.5" y="455" text-anchor="middle">CDR / EQ</text><path class="arr" d="M420 449 H380"/><rect class="tia" x="420" y="425" width="135" height="48" rx="16"/><text x="487.5" y="455" text-anchor="middle">TIA</text><path class="arr" d="M595 449 H555"/><rect class="optic" x="595" y="425" width="150" height="48" rx="16"/><text x="670" y="455" text-anchor="middle">PIN / APD λB</text><path class="arr" d="M805 449 H745"/><path class="arr" d="M805 449 H780 V360 H805"/>
<text class="sub" x="600" y="570" text-anchor="middle">Electrical data → conditioning/DSP → optical conversion → fiber | receiver performs the reverse process</text>
<text class="note" x="600" y="610" text-anchor="middle">Lane rates are nominal architecture labels; exact baud rate, FEC and coding depend on the standard/MSA.</text>
</svg>